<?xml version="1.0" encoding="UTF-8" standalone="no"?>
<!DOCTYPE svg PUBLIC "-//W3C//DTD SVG 1.1//EN" "http://www.w3.org/Graphics/SVG/1.1/DTD/svg11.dtd">
<svg width="100%" height="100%" viewBox="0 0 1084 314" version="1.1" xmlns="http://www.w3.org/2000/svg" xmlns:xlink="http://www.w3.org/1999/xlink" xml:space="preserve" xmlns:serif="http://www.serif.com/" style="fill-rule:evenodd;clip-rule:evenodd;stroke-linejoin:round;stroke-miterlimit:2;">
    <g transform="matrix(0.258437,0,0,0.258437,169.79399,155.735023)">
        <g transform="matrix(1,0,0,1,-533.333333,-533.333333)">
            <g transform="matrix(2.850929,0,0,2.850929,0,0)">
                <g>
                    <path d="M367.108,189.186C362.754,186.695 357.401,186.722 353.076,189.259L281.515,231.24L281.515,186.456C281.515,184.046 280.906,181.779 279.831,179.8C312.089,165.196 334.585,132.7 334.585,95.047C334.585,43.78 292.879,2.073 241.612,2.073C211.264,2.073 184.271,16.687 167.292,39.245C150.314,16.688 123.32,2.074 92.975,2.074C41.708,2.074 0,43.781 0,95.048C0,132.972 22.827,165.66 55.46,180.109C54.484,182.016 53.926,184.169 53.926,186.457L53.926,358.082C53.926,365.811 60.191,372.074 67.917,372.074L267.524,372.074C275.253,372.074 281.515,365.81 281.515,358.082L281.515,313.299L353.076,355.28C357.401,357.818 362.758,357.845 367.108,355.353C371.461,352.86 374.147,348.228 374.147,343.21L374.147,201.327C374.147,196.312 371.461,191.68 367.108,189.186ZM167.295,150.85C173.643,159.283 181.39,166.603 190.191,172.467L144.402,172.467C153.199,166.603 160.948,159.282 167.295,150.85ZM241.615,39.384C272.306,39.384 297.278,64.355 297.278,95.048C297.278,125.742 272.306,150.714 241.615,150.714C210.922,150.714 185.95,125.743 185.95,95.048C185.95,64.355 210.922,39.384 241.615,39.384ZM37.312,95.048C37.312,64.355 62.283,39.384 92.975,39.384C123.669,39.384 148.64,64.355 148.64,95.048C148.64,125.742 123.669,150.714 92.975,150.714C62.283,150.714 37.312,125.742 37.312,95.048Z" style="fill:rgb(255,0,0);fill-rule:nonzero;"/>
                </g>
            </g>
        </g>
    </g>
    <g transform="matrix(1.193769,0,0,1.193769,-149.647902,41.465898)">
        <g transform="matrix(165.333333,0,0,165.333333,1016.480054,165.964346)">
        </g>
        <text x="428.449px" y="165.964px" style="font-family:'ArialMT', 'Arial', sans-serif;font-size:165.333px;fill:white;">Filmhub</text>
    </g>
</svg>
